<svg id="visual" viewBox="0 0 900 600" width="900" height="600" xmlns="http://www.w3.org/2000/svg" xmlns:xlink="http://www.w3.org/1999/xlink" version="1.1"><rect x="0" y="0" width="900" height="600" fill="#ffffff"></rect><path d="M0 319L75 322C150 325 300 331 450 328.8C600 326.7 750 316.3 825 311.2L900 306L900 601L825 601C750 601 600 601 450 601C300 601 150 601 75 601L0 601Z" fill="#2433c7"></path><path d="M0 382L75 390C150 398 300 414 450 413C600 412 750 394 825 385L900 376L900 601L825 601C750 601 600 601 450 601C300 601 150 601 75 601L0 601Z" fill="#0076e9"></path><path d="M0 491L75 483.8C150 476.7 300 462.3 450 448.5C600 434.7 750 421.3 825 414.7L900 408L900 601L825 601C750 601 600 601 450 601C300 601 150 601 75 601L0 601Z" fill="#00abf3"></path><path d="M0 475L75 478.7C150 482.3 300 489.7 450 501.3C600 513 750 529 825 537L900 545L900 601L825 601C750 601 600 601 450 601C300 601 150 601 75 601L0 601Z" fill="#61d9f2"></path><path d="M0 539L75 543.3C150 547.7 300 556.3 450 562.3C600 568.3 750 571.7 825 573.3L900 575L900 601L825 601C750 601 600 601 450 601C300 601 150 601 75 601L0 601Z" fill="#bffff5"></path></svg>